<?xml version="1.0" encoding="utf-8"?>
<!-- Generator: Adobe Illustrator 18.1.1, SVG Export Plug-In . SVG Version: 6.00 Build 0)  -->
<!DOCTYPE svg PUBLIC "-//W3C//DTD SVG 1.1//EN" "http://www.w3.org/Graphics/SVG/1.1/DTD/svg11.dtd">
<svg version="1.1" id="Layer_1" xmlns="http://www.w3.org/2000/svg" xmlns:xlink="http://www.w3.org/1999/xlink" x="0px" y="0px"
	 viewBox="1720 181 800 36" enable-background="new 1720 181 800 36" xml:space="preserve">
<g id="Layer_2" display="none">
	<rect x="1644.2" y="96.5" display="inline" stroke="#FFFFFF" stroke-miterlimit="10" width="3512" height="391"/>
</g>
<path fill="#FFFFFF" d="M1720.7,211l-0.7-0.7l14.6-14.5l-14.6-14.2l0.7-0.7l15.3,14.9L1720.7,211z"/>
<path fill="#FFFFFF" d="M1775,181l0.7,0.7l-14.6,14.5l14.6,14.2l-0.7,0.7l-15.3-14.9L1775,181z"/>
<g transform="translate(70)">
	<path d="M1730.2,211l-0.7-0.7l14.6-14.5l-14.6-14.2l0.7-0.7l15.3,14.9L1730.2,211z"/>
</g>
<g transform="translate(70)">
	<path d="M1784.5,181l0.7,0.7l-14.6,14.5l14.6,14.2l-0.7,0.7l-15.3-14.9L1784.5,181z"/>
</g>
<g transform="translate(420)">
	<g>
		<path fill="#FFFFFF" d="M1544.9,181l28.7,28.7l-1,1l-28.7-28.7L1544.9,181z M1572.6,181l1,1l-28.7,28.7l-1-1L1572.6,181z"/>
	</g>
</g>
<g transform="translate(490)">
	<g>
		<path fill="#FFFFFF" d="M1546.4,181l27.7,27.7l-2,2l-27.7-27.7L1546.4,181z M1572.2,181l2,2l-27.7,27.7l-2-2L1572.2,181z"/>
	</g>
</g>
<g transform="translate(840)" display="none">
	<g display="inline">
		<path fill="#FFFFFF" d="M1735,211c-8.3,0-15-6.7-15-15c0-8.3,6.7-15,15-15s15,6.7,15,15C1750,204.3,1743.3,211,1735,211z
			 M1735,182c-7.7,0-14,6.3-14,14c0,7.7,6.3,14,14,14c7.7,0,14-6.3,14-14C1749,188.3,1742.7,182,1735,182z M1734.5,193.8h1v10.1h-1
			V193.8z M1734.5,188.1h1v2.9h-1V188.1z"/>
	</g>
</g>
<path display="none" fill="#09D809" d="M4951,196.6c0-8.3-6.7-15-15-15c-8.3,0-15,6.7-15,15s6.7,15,15,15S4951,204.8,4951,196.6"/>
<path display="none" fill="#FFFFFF" d="M4929.4,200.3c-0.5-0.2-0.6-0.8-0.4-1.3l0.4-0.7c0.2-0.5,0.8-0.6,1.3-0.4l4.1,2.7l6-10.3
	c0.3-0.5,0.9-0.6,1.3-0.4l0.7,0.4c0.5,0.3,0.6,0.8,0.4,1.3l-6.8,11.4l-0.3,0.5c-0.2,0.5-0.8,0.6-1.3,0.4l-0.1,0c0,0,0,0,0,0
	L4929.4,200.3z"/>
<g display="none">
	<path display="inline" fill="#ED1C24" d="M4993.9,196c0-8.3-6.7-15-15-15s-15,6.7-15,15c0,8.3,6.7,15,15,15
		S4993.9,204.3,4993.9,196"/>
	<path display="inline" fill="#FFFFFF" d="M4981.1,196.1l4.5-4.6c0.4-0.4,0.4-1.1,0-1.6l-0.6-0.7c-0.4-0.4-1.1-0.4-1.6,0l-4.6,4.6
		l-4.6-4.6c-0.4-0.4-1.1-0.4-1.6,0l-0.6,0.7c-0.4,0.4-0.4,1.1,0,1.6l4.6,4.6l-4.6,4.5c-0.4,0.4-0.4,1.1,0,1.6l0.6,0.7
		c0.4,0.4,1.1,0.4,1.6,0l4.6-4.6l4.6,4.6c0.4,0.4,1.1,0.4,1.6,0l0.6-0.7c0.4-0.4,0.4-1.1,0-1.6L4981.1,196.1z"/>
</g>
<path fill="#FFFFFF" d="M1720.7,211l-0.7-0.7l14.6-14.5l-14.6-14.2l0.7-0.7l15.3,14.9L1720.7,211z"/>
<path fill="#FFFFFF" d="M1775,181l0.7,0.7l-14.6,14.5l14.6,14.2l-0.7,0.7l-15.3-14.9L1775,181z"/>
<g transform="translate(70)">
	<path d="M1730.2,211l-0.7-0.7l14.6-14.5l-14.6-14.2l0.7-0.7l15.3,14.9L1730.2,211z"/>
</g>
<g transform="translate(70)">
	<path d="M1784.5,181l0.7,0.7l-14.6,14.5l14.6,14.2l-0.7,0.7l-15.3-14.9L1784.5,181z"/>
</g>
<g transform="translate(420)">
	<g>
		<path fill="#FFFFFF" d="M1544.9,181l28.7,28.7l-1,1l-28.7-28.7L1544.9,181z M1572.6,181l1,1l-28.7,28.7l-1-1L1572.6,181z"/>
	</g>
</g>
<g transform="translate(490)">
	<g>
		<path fill="#FFFFFF" d="M1546.4,181l27.7,27.7l-2,2l-27.7-27.7L1546.4,181z M1572.2,181l2,2l-27.7,27.7l-2-2L1572.2,181z"/>
	</g>
</g>
<g transform="translate(560)">
	<g>
		<path fill="#1D1D1B" d="M1649.6,210.8l-27.7-27.7l2-2l27.7,27.7L1649.6,210.8z M1623.8,210.8l-2-2l27.7-27.7l2,2L1623.8,210.8z"/>
	</g>
</g>
<g transform="translate(630)">
	<g>
		<path fill="#1D1D1B" d="M1510,210.7l-28.7-28.7l1-1l28.7,28.7L1510,210.7z M1482.3,210.7l-1-1L1510,181l1,1L1482.3,210.7z"/>
	</g>
</g>
<g transform="translate(840)" display="none">
	<g display="inline">
		<path fill="#FFFFFF" d="M1735,211c-8.3,0-15-6.7-15-15c0-8.3,6.7-15,15-15s15,6.7,15,15C1750,204.3,1743.3,211,1735,211z
			 M1735,182c-7.7,0-14,6.3-14,14c0,7.7,6.3,14,14,14c7.7,0,14-6.3,14-14C1749,188.3,1742.7,182,1735,182z M1734.5,193.8h1v10.1h-1
			V193.8z M1734.5,188.1h1v2.9h-1V188.1z"/>
	</g>
</g>
<path display="none" fill="#09D809" d="M4951,196.6c0-8.3-6.7-15-15-15c-8.3,0-15,6.7-15,15s6.7,15,15,15S4951,204.8,4951,196.6"/>
<path display="none" fill="#FFFFFF" d="M4929.4,200.3c-0.5-0.2-0.6-0.8-0.4-1.3l0.4-0.7c0.2-0.5,0.8-0.6,1.3-0.4l4.1,2.7l6-10.3
	c0.3-0.5,0.9-0.6,1.3-0.4l0.7,0.4c0.5,0.3,0.6,0.8,0.4,1.3l-6.8,11.4l-0.3,0.5c-0.2,0.5-0.8,0.6-1.3,0.4l-0.1,0c0,0,0,0,0,0
	L4929.4,200.3z"/>
<g display="none">
	<path display="inline" fill="#ED1C24" d="M4993.9,196c0-8.3-6.7-15-15-15s-15,6.7-15,15c0,8.3,6.7,15,15,15
		S4993.9,204.3,4993.9,196"/>
	<path display="inline" fill="#FFFFFF" d="M4981.1,196.1l4.5-4.6c0.4-0.4,0.4-1.1,0-1.6l-0.6-0.7c-0.4-0.4-1.1-0.4-1.6,0l-4.6,4.6
		l-4.6-4.6c-0.4-0.4-1.1-0.4-1.6,0l-0.6,0.7c-0.4,0.4-0.4,1.1,0,1.6l4.6,4.6l-4.6,4.5c-0.4,0.4-0.4,1.1,0,1.6l0.6,0.7
		c0.4,0.4,1.1,0.4,1.6,0l4.6-4.6l4.6,4.6c0.4,0.4,1.1,0.4,1.6,0l0.6-0.7c0.4-0.4,0.4-1.1,0-1.6L4981.1,196.1z"/>
</g>
<g transform="translate(2450)">
	<path fill="#FFFFFF" d="M-152.2,216.8l-35.6,0l0-35.6h35.6V216.8z"/>
	<path fill="#FFFFFF" d="M-167.4,192.4c0.8,0,1.6,0.2,1.6,0.2l0.5-3c0,0-1.3-0.4-3.6-0.4c-1.5,0-2.4,0.5-3,1.4
		c-0.6,0.8-0.6,2.1-0.6,3v2.1h-2.1l0,2.8l2.1,0v10h3.6v-10h2.9l0.4-2.9h-3.2v-2.3C-168.9,192.7-168.2,192.4-167.4,192.4
		L-167.4,192.4z"/>
</g>
<g>
	<rect x="2342.2" y="181" opacity="0.75" fill="#FFFFFF" enable-background="new    " width="35.6" height="35.6"/>
	<path fill="#FFFFFF" d="M2377.8,216.6l-35.6,0l0-35.6h35.6V216.6z"/>
	<path fill="#FFFFFF" d="M2369,194.6c-0.4-1.4-1-2-2.2-2.2c-0.7-0.1-4.1-0.2-6.8-0.2h0c-2.7,0-6.1,0.1-6.8,0.2
		c-1.2,0.2-1.9,0.7-2.2,2.2c-0.1,0.5-0.3,3.1-0.3,4.1v0.2c0,1,0.2,3.6,0.3,4.1c0.4,1.4,1,2,2.2,2.2c0.7,0.1,4.1,0.2,6.8,0.2h0
		c2.7,0,6.1-0.1,6.8-0.2c1.2-0.2,1.9-0.7,2.2-2.2c0.1-0.5,0.3-3.1,0.3-4.1v-0.2C2369.3,197.7,2369.1,195.1,2369,194.6z
		 M2358.1,202.1v-6.8l5.4,3.5L2358.1,202.1z"/>
</g>
<g transform="translate(2135)">
	<path fill="#FFFFFF" d="M202.8,216.6l-35.6,0l0-35.6h35.6V216.6z"/>
	<path fill="#FFFFFF" d="M193.9,193c-0.7,0.3-1.5,0.6-2.4,0.6c-0.6-0.8-1.5-1.3-2.5-1.4c-2-0.2-3.8,1.2-4,3.2c0,0.3,0,0.6,0,0.8
		c-3-0.5-5.5-2.2-7-4.6c-0.4,0.5-0.6,1.1-0.7,1.8c-0.1,1.2,0.4,2.4,1.3,3.2c-0.6-0.1-1.1-0.3-1.6-0.6l0,0c-0.2,1.7,0.9,3.3,2.5,3.8
		c-0.3,0.1-0.6,0.1-1,0c-0.2,0-0.5-0.1-0.7-0.1c0.3,1.5,1.5,2.7,3.1,2.9c-1.3,0.8-3,1.2-4.6,1.1c-0.3,0-0.6-0.1-0.9-0.1
		c1.5,1.2,3.3,2,5.3,2.2c6.6,0.7,10.8-4.4,11.3-9.1c0-0.2,0-0.3,0-0.5c0.8-0.4,1.4-1,2-1.7c-0.7,0.2-1.4,0.3-2.1,0.3
		C192.9,194.5,193.6,193.8,193.9,193z"/>
</g>
<g transform="translate(2450)">
	<path fill="#3C589A" d="M-32.2,216.8l-35.6,0l0-35.6h35.6V216.8z"/>
	<path fill="#FFFFFF" d="M-47.4,192.4c0.8,0,1.6,0.2,1.6,0.2l0.5-3c0,0-1.3-0.4-3.6-0.4c-1.5,0-2.4,0.5-3,1.4
		c-0.6,0.8-0.6,2.1-0.6,3v2.1h-2.1l0,2.8l2.1,0v10h3.6v-10h2.9l0.4-2.9h-3.2v-2.3C-48.9,192.7-48.2,192.4-47.4,192.4L-47.4,192.4z"
		/>
</g>
<g>
	<rect x="2462.2" y="181" opacity="0.75" fill="#FFFFFF" enable-background="new    " width="35.6" height="35.6"/>
	<path fill="#E72C2E" d="M2497.8,216.6l-35.6,0l0-35.6h35.6V216.6z"/>
	<path fill="#FFFFFF" d="M2489,194.6c-0.4-1.4-1-2-2.2-2.2c-0.7-0.1-4.1-0.2-6.8-0.2h0c-2.7,0-6.1,0.1-6.8,0.2
		c-1.2,0.2-1.9,0.7-2.2,2.2c-0.1,0.5-0.3,3.1-0.3,4.1v0.2c0,1,0.2,3.6,0.3,4.1c0.4,1.4,1,2,2.2,2.2c0.7,0.1,4.1,0.2,6.8,0.2h0
		c2.7,0,6.1-0.1,6.8-0.2c1.2-0.2,1.9-0.7,2.2-2.2c0.1-0.5,0.3-3.1,0.3-4.1v-0.2C2489.3,197.7,2489.1,195.1,2489,194.6z
		 M2478.1,202.1v-6.8l5.4,3.5L2478.1,202.1z"/>
</g>
<g transform="translate(2135)">
	<path fill="#68ACD2" d="M322.8,216.6l-35.6,0l0-35.6h35.6V216.6z"/>
	<path fill="#FFFFFF" d="M313.9,193c-0.7,0.3-1.5,0.6-2.4,0.6c-0.6-0.8-1.5-1.3-2.5-1.4c-2-0.2-3.8,1.2-4,3.2c0,0.3,0,0.6,0,0.8
		c-3-0.5-5.5-2.2-7-4.6c-0.4,0.5-0.6,1.1-0.7,1.8c-0.1,1.2,0.4,2.4,1.3,3.2c-0.6-0.1-1.1-0.3-1.6-0.6l0,0c-0.2,1.7,0.9,3.3,2.5,3.8
		c-0.3,0.1-0.6,0.1-1,0c-0.2,0-0.5-0.1-0.7-0.1c0.3,1.5,1.5,2.7,3.1,2.9c-1.3,0.8-3,1.2-4.6,1.1c-0.3,0-0.6-0.1-0.9-0.1
		c1.5,1.2,3.3,2,5.3,2.2c6.6,0.7,10.8-4.4,11.3-9.1c0-0.2,0-0.3,0-0.5c0.8-0.4,1.4-1,2-1.7c-0.7,0.2-1.4,0.3-2.1,0.3
		C312.9,194.5,313.6,193.8,313.9,193z"/>
</g>
</svg>
